<?xml version="1.0" encoding="UTF-8" standalone="no"?>
<svg
   xmlns:dc="http://purl.org/dc/elements/1.1/"
   xmlns:cc="http://creativecommons.org/ns#"
   xmlns:rdf="http://www.w3.org/1999/02/22-rdf-syntax-ns#"
   xmlns:svg="http://www.w3.org/2000/svg"
   xmlns="http://www.w3.org/2000/svg"
   xmlns:sodipodi="http://sodipodi.sourceforge.net/DTD/sodipodi-0.dtd"
   xmlns:inkscape="http://www.inkscape.org/namespaces/inkscape"
   id="a"
   viewBox="0 0 2652.64 447.38"
   version="1.1"
   sodipodi:docname="logo_betalent.svg"
   width="2652.6399"
   height="447.38"
   inkscape:version="0.92.5 (2060ec1f9f, 2020-04-08)">
  <metadata
     id="metadata25">
    <rdf:RDF>
      <cc:Work
         rdf:about="">
        <dc:format>image/svg+xml</dc:format>
        <dc:type
           rdf:resource="http://purl.org/dc/dcmitype/StillImage" />
        <dc:title></dc:title>
      </cc:Work>
    </rdf:RDF>
  </metadata>
  <sodipodi:namedview
     pagecolor="#ffffff"
     bordercolor="#666666"
     borderopacity="1"
     objecttolerance="10"
     gridtolerance="10"
     guidetolerance="10"
     inkscape:pageopacity="0"
     inkscape:pageshadow="2"
     inkscape:window-width="640"
     inkscape:window-height="480"
     id="namedview23"
     showgrid="false"
     fit-margin-top="0"
     fit-margin-left="0"
     fit-margin-right="0"
     fit-margin-bottom="0"
     inkscape:zoom="0.098072076"
     inkscape:cx="1326.925"
     inkscape:cy="223.68499"
     inkscape:window-x="0"
     inkscape:window-y="0"
     inkscape:window-maximized="0"
     inkscape:current-layer="a" />
  <defs
     id="defs4">
    <style
       id="style2">.b{fill:#ff5100;}</style>
  </defs>
  <path
     d="m 150.15,255.82 v 78.31 c 0,8.62 4.91,13.58 13.53,13.58 h 58.66 c 29.54,0 43.69,-21.55 43.69,-46.2 0,-24.65 -13.53,-44.9 -43.07,-44.9 h -53.54 v -86.14 h 43.69 c 25.86,0 37.53,-19.69 37.53,-40.64 0,-20.95 -11.68,-37.53 -39.39,-37.53 H 0 V 0 h 211.9 c 87.99,0 149.55,39.39 149.55,115.05 0,49.26 -28.31,81.23 -51.09,93.55 v 1.25 c 50.46,15.38 68.92,60.28 68.92,99.06 0,96.01 -80,131.08 -167.39,131.08 H 84.9 c -31.37,0 -44.92,-13.53 -44.92,-44.95 V 255.8 h 110.16 z"
     id="path6"
     inkscape:connector-curvature="0" />
  <path
     class="b"
     d="m 581.35,115.71 c 93.53,0 146.47,65.19 146.47,153.23 0,10.42 -2.48,31.97 -2.48,31.97 H 525.36 c 7.99,39.99 39.99,57.88 73.84,57.88 45.55,0 84.31,-33.27 84.31,-33.27 l 42.47,71.4 c 0,0 -51.09,50.46 -135.39,50.46 -113.22,0 -174.15,-81.83 -174.15,-166.16 0,-92.9 62.76,-165.51 164.93,-165.51 z m 37.53,120.61 c 0,-19.69 -15.38,-40.64 -37.53,-40.64 -30.77,0 -46.15,17.24 -52.94,40.64 z"
     id="path8"
     inkscape:connector-curvature="0"
     style="fill:#ff5100" />
  <path
     d="m 877.54,92.31 h -35.7 c -8.62,0 -13.53,4.91 -13.53,13.53 v 24 H 732.9 V 42.45 C 732.9,11.08 744,0.01 775.37,0.01 h 314.48 c 31.37,0 42.47,11.07 42.47,42.44 v 87.39 h -95.41 v -24 c 0,-8.62 -4.91,-13.53 -13.53,-13.53 h -35.7 v 347.7 H 877.54 Z"
     id="path10"
     inkscape:connector-curvature="0" />
  <path
     d="m 1306.07,240.63 h 4.31 v -3.71 c 0,-30.17 -14.16,-41.24 -40.61,-41.24 -13.55,0 -27.71,3.11 -27.71,15.38 v 14.18 h -98.46 v -35.08 c 0,-70.8 89.87,-74.46 126.17,-74.46 110.77,0 147.07,56.57 147.07,129.23 v 92.3 c 0,8.62 4.94,13.53 13.55,13.53 h 23.38 V 440 h -92.3 c -30.79,0 -41.87,-19.09 -41.87,-33.22 v -5.56 h -1.23 c 0,0 -22.15,46.15 -88.62,46.15 -59.08,0 -107.68,-39.39 -107.68,-102.17 0,-94.15 134.77,-104.58 184,-104.58 z m -46.78,125.52 c 27.71,0 52.31,-30.17 52.31,-56.02 v -4.91 h -9.85 c -33.85,0 -72.61,9.22 -72.61,34.47 0,14.78 9.22,26.46 30.14,26.46 z"
     id="path12"
     inkscape:connector-curvature="0" />
  <path
     d="m 1510.56,102.78 c 0,-8.62 -4.91,-13.58 -13.53,-13.58 h -23.4 V 0.01 h 98.46 c 31.39,0 44.92,13.53 44.92,44.9 v 292.33 c 0,8.62 4.94,13.53 13.55,13.53 h 23.38 v 89.24 h -98.46 c -31.37,0 -44.92,-13.53 -44.92,-44.95 z"
     id="path14"
     inkscape:connector-curvature="0" />
  <path
     d="m 1846.69,115.71 c 93.53,0 146.47,65.19 146.47,153.23 0,10.42 -2.48,31.97 -2.48,31.97 H 1790.7 c 7.99,39.99 39.99,57.88 73.84,57.88 45.55,0 84.31,-33.27 84.31,-33.27 l 42.47,71.4 c 0,0 -51.09,50.46 -135.39,50.46 -113.22,0 -174.15,-81.83 -174.15,-166.16 0,-92.9 62.76,-165.51 164.93,-165.51 z m 37.53,120.61 c 0,-19.69 -15.38,-40.64 -37.53,-40.64 -30.77,0 -46.15,17.24 -52.94,40.64 z"
     id="path16"
     inkscape:connector-curvature="0" />
  <path
     d="m 2062.26,225.85 c 0,-8.62 -4.91,-13.53 -13.53,-13.53 h -23.38 v -89.24 h 94.76 c 28.94,0 44.32,14.13 44.32,35.68 v 4.31 c 0,3.11 -0.63,7.42 -0.63,7.42 h 1.23 c 14.78,-24.65 44.32,-54.77 100.32,-54.77 64.01,0 113.85,29.51 113.85,118.76 v 102.77 c 0,8.62 4.94,13.53 13.55,13.53 h 23.38 v 89.24 h -98.46 c -31.39,0 -44.92,-13.53 -44.92,-44.95 V 254.16 c 0,-29.56 -11.7,-41.84 -35.08,-41.84 -33.25,0 -53.54,18.44 -62.79,45.55 -4.31,12.28 -6.14,26.46 -6.14,41.84 v 140.3 h -106.48 z"
     id="path18"
     inkscape:connector-curvature="0" />
  <path
     d="m 2475.4,206.15 h -40.61 v -83.08 h 43.69 V 37.53 h 103.4 v 85.54 h 66.47 v 83.08 h -66.47 v 102.77 c 0,35.68 36.3,40.59 56.6,40.59 8.62,0 14.16,-0.6 14.16,-0.6 v 92.3 c 0,0 -11.68,1.85 -28.91,1.85 -50.46,0 -148.32,-13.53 -148.32,-120.01 v -116.9 z"
     id="path20"
     inkscape:connector-curvature="0" />
</svg>
